# xmcd
#
# Track frame offsets: 
#        150
#        30164
#        48002
#        67743
#        84788
#        99717
#        110862
#        132726
#        147156
#        163461
#        172708
#        187965
#        200488
#        212334
#        223855
#        239021
#
# Disc length: 3337 seconds
#
# Revision: 0
# Processed by: cddbd v1.5.2PL0 Copyright (c) Steve Scherf et al.
# Submitted via: ExactAudioCopy v0.95b4
#
DISCID=df0d0710
DTITLE=Various Artist - Celtic Journey
DYEAR=2006
DGENRE=Celtic
TTITLE0=Journey of a River
TTITLE1=Tom Bowling
TTITLE2=Hannah's Grey Shawl
TTITLE3=Pilgrim
TTITLE4=The Fairhaired Child
TTITLE5=Water of Tyne
TTITLE6=Lament
TTITLE7=Pretty Maid Milking her Cow
TTITLE8=My Lagan Love
TTITLE9=Leezie Lyndsey
TTITLE10=Heather Island
TTITLE11=Rhos-y-Llan Castle
TTITLE12=Dream Angus
TTITLE13=Celebration
TTITLE14=Leaving Arisaig
TTITLE15=Fair Young Mary
EXTD=
EXTT0=
EXTT1=
EXTT2=
EXTT3=
EXTT4=
EXTT5=
EXTT6=
EXTT7=
EXTT8=
EXTT9=
EXTT10=
EXTT11=
EXTT12=
EXTT13=
EXTT14=
EXTT15=
PLAYORDER=
